<?xml version="1.0" encoding="utf-8"?>
<!-- Generator: Adobe Illustrator 18.0.0, SVG Export Plug-In . SVG Version: 6.00 Build 0)  -->
<!DOCTYPE svg PUBLIC "-//W3C//DTD SVG 1.1//EN" "http://www.w3.org/Graphics/SVG/1.1/DTD/svg11.dtd">
<svg version="1.1" id="Слой_1" xmlns="http://www.w3.org/2000/svg" xmlns:xlink="http://www.w3.org/1999/xlink" x="0px" y="0px"
	 width="110px" height="40px" viewBox="0 0 110 40" enable-background="new 0 0 110 40" xml:space="preserve">
<g>
	<path d="M14.8,32.4c-2.8,0-5.6,0-8.3,0C3.7,32.4,2,30.7,2,28c0-5.5,0-11,0-16.5C2,8.7,3.7,7,6.5,7C12,7,17.6,7,23.1,7
		c2.7,0,4.4,1.7,4.4,4.4c0,5.5,0,11,0,16.5c0,2.7-1.7,4.4-4.5,4.4C20.3,32.4,17.5,32.4,14.8,32.4z M22.8,19.8c0-2.1,0-4.1,0-6.2
		c0-1.6-0.3-1.9-1.9-1.9c-4.1,0-8.2,0-12.3,0c-1.5,0-1.9,0.4-1.9,1.9c0,4.1,0,8.2,0,12.3c0,1.3,0.5,1.9,1.8,1.9c4.2,0,8.4,0,12.6,0
		c1.2,0,1.8-0.5,1.8-1.8C22.8,23.9,22.8,21.8,22.8,19.8z"/>
	<path d="M57.5,17.5c0.1-0.5,0.1-0.8,0.2-1.3c0.5,0,1,0,1.6,0c0,5.3,0,10.6,0,16c-0.5,0-1,0-1.6,0c0-1.9,0-3.8,0-6
		c-1.8,1.7-3.8,2.2-5.8,1.6c-1.3-0.4-2.7-1.3-3.6-2.3c-1.9-2.2-1.6-5.6,0.4-7.7C51,15.4,54.1,15.3,57.5,17.5z M53.3,26.4
		c2.5,0,4.3-1.9,4.3-4.4c0-2.5-2-4.4-4.4-4.4c-2.5,0-4.4,2-4.4,4.5C48.9,24.6,50.7,26.4,53.3,26.4z"/>
	<path d="M34.5,23.3c1.2-0.4,1.8-0.2,2.2,0.9c0.5,1.4,1.8,1.9,3.2,2c1.3,0.1,2.5-0.5,3.3-1.6c0.9-1.3,0.5-2.9-1.1-3.6
		c-1.4-0.6-3-0.9-4.4-1.5c-2.2-0.9-3.1-3-2.3-5.2c0.8-2.1,2.9-3.3,5.4-3c2.3,0.3,3.9,2,4.1,4.4c-1,0.3-1.7,0.4-2.1-0.9
		c-0.4-1.2-1.5-1.8-2.7-1.6c-1,0.2-2.1,0.7-2.7,1.4c-1,1.1-0.4,2.7,1,3.2c1,0.4,2.1,0.6,3.1,0.9c3,1,4.3,2.6,4,5
		c-0.3,2.2-2.3,4-4.7,4.2c-2.9,0.3-5.3-1.1-6-3.6C34.6,24.1,34.5,23.8,34.5,23.3z"/>
	<path d="M107,24.9c-1.3,2.7-4.6,3.9-7.6,2.8c-3.1-1.2-4.7-4.5-3.6-7.6c1-3,4.2-4.8,7.2-4c3.1,0.8,5.1,3.6,4.5,6.6
		c-3.3,0-6.6,0-10.1,0c0.2,1.7,1,2.7,2.4,3.3c1.7,0.7,3.3,0.5,4.8-0.6c0.6-0.5,1.5-0.7,2.2-1C106.9,24.6,106.9,24.7,107,24.9z
		 M105.6,21c-0.5-2.2-2.1-3.4-4.2-3.4c-2,0-3.6,1.4-3.9,3.4C100.2,21,102.9,21,105.6,21z"/>
	<path d="M86.3,27.7c-1,0.2-2,0.4-1.8-1.4c-1.8,1.6-3.7,2.2-5.7,1.5c-1.3-0.4-2.6-1.2-3.5-2.2c-2-2.3-1.7-5.7,0.4-7.8
		c2.3-2.4,5.6-2.5,8.7-0.3c0.1-0.4,0.2-0.8,0.3-1.2c0.6,0,1.1,0,1.6,0C86.3,20.1,86.3,23.9,86.3,27.7z M75.9,22
		c0,2.6,1.7,4.4,4.3,4.4c2.5,0,4.4-1.8,4.5-4.3c0.1-2.5-1.9-4.5-4.4-4.5C77.7,17.6,75.9,19.4,75.9,22z"/>
	<path d="M62,16.2c0.5,0,0.9,0,1.6,0c0,1.4,0,2.7,0,4.1c0,1,0,2.1,0.1,3.1c0.1,1.9,1.1,2.9,2.7,3c2,0.1,3.4-0.8,3.7-2.7
		c0.2-1.3,0.1-2.7,0.1-4.1c0-1.1,0-2.2,0-3.3c0.6,0,1.2,0,1.8,0c0,3.8,0,7.5,0,11.6c-0.8-0.2-1.4-0.4-2-0.6c-1.3,0.2-2.7,0.6-4,0.6
		c-2.1,0-3.8-1.4-4-3.5C61.8,21.8,62,19,62,16.2z"/>
	<path d="M89.3,16.2c0.5,0,1,0,1.5,0c0.1,0.4,0.2,0.8,0.3,1.2c0.7-0.4,1.4-0.9,2.1-1.2c0.7-0.3,1.4-0.3,2.2-0.4
		c0.3,1,0.4,1.6-0.9,1.8c-2.2,0.4-3.4,2-3.5,4.4c0,0.9,0,1.9,0,2.8c0,0.9,0,1.8,0,2.8c-0.6,0-1.1,0.1-1.7,0.1
		C89.3,24,89.3,20.2,89.3,16.2z"/>
	<path d="M18.3,19.7c-0.1,4,0.6,3.5-3.5,3.5c-3.9,0-3.5,0.5-3.5-3.5c0-4.1-0.4-3.5,3.5-3.5C18.3,16.2,18.3,16.2,18.3,19.7z"/>
</g>
<g>
</g>
<g>
</g>
<g>
</g>
<g>
</g>
<g>
</g>
<g>
</g>
</svg>
